<?xml version="1.0"?>
<svg version="1.1" xmlns="http://www.w3.org/2000/svg" width="170px" height="40px" style=""><path fill="#f7410a" d="M63.675,34.375q-2.2,1.7-3.225,1.7q-0.55,0-0.8125-0.5375t-0.2625-1.1625q0-1.2,1.0125-3.6t1.9375-2.4q0.475,0,0.8125,1.875t0.6875,2.725q1.7-1.8,4.925-6q4.05-5.325,5.375-5.825q0.45-0.175,0.925-0.175t0.7875,0.2t0.3125,0.5q0,0.425-0.725,0.5q-0.875,0.475-2.7,2.3q-1.825,1.775-2.925,3.325q-2.675,3.725-5.5,6.075q1.4,2.075,4.4,2.075q0.325,0,0.975-0.05q6.95-0.65,9.85-6.025q1.175-2.15,1.175-4.25t-1.525-3.775q-1.225-1.375-2.6625-1.7t-2.9375-0.325q-3.85,0-7.1,1.775q-3.425,1.875-3.425,4.2q0,0.625,0.3375,1.025t0.4625,0.45l-0.15,0q-0.65-0.125-1.15-0.65q-0.55-0.65-0.55-1.375q0-2.5,3.1375-4.3t7.3625-1.8q1.95,0,4,0.45t3.725,2.15q1.925,2,1.925,4.525q0,1.875-1.1,3.875q-1.9,3.45-5.675,5.05q-3.025,1.275-6.525,1.275t-5.175-2.1z M60.275,34.275q0,0.775,0.3,1.35q1.075-0.475,2.6-1.975q-0.725-1.2-0.9125-1.8875t-0.2625-1.8125q-1.725,2.475-1.725,4.325z M63.85,27.275q0.025,0,0.05-0.025q0,0.05-0.0125,0.05t-0.0375-0.025z M89.26675,25.0375q0.3375,0.2375,0.3375,0.5625t-0.3125,0.5625t-0.6875,0.2375t-0.6875-0.275t-0.3125-0.625q0-0.7,0.95-0.7q0.375,0,0.7125,0.2375z M84.02925,35.275q-1.275,0-1.275-1.65q0-1.35,1.475-3.7375t2.375-2.4125q0.25,0,0.5625,0.2t0.3125,0.4q-0.125,0.175-0.3,0.3875t-0.375,0.4625t-0.55,0.7125t-0.675,0.8875q-1.875,2.425-1.875,3.3375t0.625,0.9125q0.525,0,1.425-0.575q2.1-1.3,3.325-2.85q0.45-0.575,0.6125-0.575t0.1625,0.2t-0.575,0.8t-0.9125,0.95t-0.4625,0.4625t-0.4625,0.425t-0.5125,0.4375t-0.5,0.375t-0.575,0.3625t-0.575,0.2625q-0.525,0.225-1.25,0.225z M98.2335,27.375l0.35-0.075q0.325,0,0.5125,0.2t0.1875,0.3125t-0.025,0.25t-0.725,1.2625q-0.875,1.525-1.45,2.575q-2.025,3.775-3.1,5.175q-2.3,3.05-4.375,3.05q-0.725,0-1.2625-0.6125t-0.5625-1.3625q0.075-0.3,0.225-0.3q0.075,0,0.125,0.175q0.125,0.65,0.475,1t0.7,0.35q1.425,0,3.05-1.875q1.075-1.25,2.375-3.65l1.25-2.475l-1.875,1.9q-1.8,1.725-2.4625,1.725t-1.2625-0.45q-0.675-0.5-0.675-1.325q0-1.825,2.5625-4.35t4.6625-2.525q0.85,0,1.1,0.55q0.075,0.2,0.125,0.3375t0.075,0.1375z M90.7585,33.525q0,0.9,0.625,0.9q1.45,0,3.95-3.175l2.65-3.65q-0.15-0.35-0.625-0.35q-1.55,0-4.075,2.3875t-2.525,3.8875z M106.37525,25.0375q0.3375,0.2375,0.3375,0.5625t-0.3125,0.5625t-0.6875,0.2375t-0.6875-0.275t-0.3125-0.625q0-0.7,0.95-0.7q0.375,0,0.7125,0.2375z M101.13775,35.275q-1.275,0-1.275-1.65q0-1.35,1.475-3.7375t2.375-2.4125q0.25,0,0.5625,0.2t0.3125,0.4q-0.125,0.175-0.3,0.3875t-0.375,0.4625t-0.55,0.7125t-0.675,0.8875q-1.875,2.425-1.875,3.3375t0.625,0.9125q0.525,0,1.425-0.575q2.1-1.3,3.325-2.85q0.45-0.575,0.6125-0.575t0.1625,0.2t-0.575,0.8t-0.9125,0.95t-0.4625,0.4625t-0.4625,0.425t-0.5125,0.4375t-0.5,0.375t-0.575,0.3625t-0.575,0.2625q-0.525,0.225-1.25,0.225z M113.517,26.95l3.6-0.05q0.075,0.05,0.075,0.075q0,0.225-3.1125,0.625t-3.3625,0.475q-0.475,0.425-1.75,2.5375t-1.275,3.0875q0,0.925,1.275,0.925q0.6,0,1.575-0.375t1.5-0.7q1.4-0.875,3-2.575q0.35-0.35,0.475-0.35q0.075,0,0.075,0.15t-0.375,0.6q-1.3,1.6-2.925,2.575q-1.95,1.2-3.725,1.2q-0.775,0-1.2625-0.3375t-0.4875-1.3625t0.9-2.8125t1.375-2.6625q-0.35,0.075-0.6,0.075q-0.725,0-0.725-0.575q0-0.425,0.6-0.6q0.075,0,0.225-0.025l1.45,0q0.45-0.575,1.025-1.325q0.7-0.9,0.95-0.9t0.625,0.2t0.375,0.475t-1.2,1.625q0.65,0.025,1.7,0.025z M116.79625,35.325q-0.275,0-0.5-0.075q-1.6-0.45-1.6-1.8q0-1.75,2.2-4.05t3.95-2.3q0.575,0,0.9375,0.3125t0.3625,0.7625q0,1.4-2.1125,2.675t-3.4375,1.275q-0.2,0-0.35-0.05q-0.375,0.675-0.375,1.425q0,1.3,1.2375,1.3t3.2125-1.675q1.525-1.225,2.6-2.6q0.225-0.3,0.3875-0.3t0.1625,0.15t-0.2,0.425q-1.35,1.775-3.25,3.15t-3.225,1.375z M121.52125,28.125q0-0.3-0.6375-0.3t-1.8125,0.975q-1.575,1.3-2.45,2.725q0.15,0.05,0.325,0.05q0.95,0,2.5375-1.0125t1.9875-2.2125q0.05-0.125,0.05-0.225z M124.9505,35.325q-0.275,0-0.5-0.075q-1.6-0.45-1.6-1.8q0-1.75,2.2-4.05t3.95-2.3q0.575,0,0.9375,0.3125t0.3625,0.85t-0.325,1.125t-0.975,0.5875t-0.65-0.4q0-0.275,0.3375-0.8375t0.3375-0.6t-0.075-0.0375q-0.7,0.075-1.9125,1t-1.6625,1.55l-0.975,1.425q-0.25,0.4-0.3625,0.95t-0.1125,0.825t0.3125,0.625t0.8875,0.35q1.25,0,3.1-1.4625t2.85-2.7875q0.125-0.15,0.3-0.15t0.175,0.1t-0.125,0.25q-1.375,1.825-3.2875,3.1875t-3.1875,1.3625z M137.15475,34.9q-1.475,0-1.475-1.725q0-0.975,0.6875-2.1625t1.6875-2.7875q-3.2,1.6-5.8,4.725q-1.45,2.175-1.7,2.175q-0.725,0-0.725-0.425q0-0.225,0.3-0.8q2.425-4.325,3.675-6.325q2.975-4.775,4.2-5.175q0.05-0.025,0.1-0.025q0.325,0,0.45,0.525q-0.075,0.525-2.6,3.8q-2.625,3.325-2.975,4.35q0.925-0.675,3.225-2.275q2.475-1.725,3.275-1.725t0.8,0.625q0,0.1-0.0125,0.1375t-1.7375,2.3625t-1.725,3.425q0,0.575,0.425,0.575q1.35-0.05,4.05-3.25q0.225-0.225,0.3375-0.225t0.1125,0.15q0,0.5-2.475,2.7q-1.55,1.35-2.1,1.35z M145.5965,33.675q0.3375,0.25,0.3375,0.5625t-0.3125,0.55t-0.6875,0.2375t-0.6875-0.2625t-0.3125-0.6125q0-0.725,0.95-0.725q0.375,0,0.7125,0.25z"/><path fill="#" d=""/></svg>
